<svg version="1.1" xmlns="http://www.w3.org/2000/svg" x="0" y="0" viewBox="0 0 539.3 181.3" xml:space="preserve" preserveAspectRatio="none">
  <path fill="#d22730" d="M474.2 175.5H63c-34.2 0-61.9-27.7-61.9-61.9V65.9C1.1 31.7 28.8 4 63 4h411.2c34.2 0 61.9 27.7 61.9 61.9v47.7c0 34.2-27.7 61.9-61.9 61.9z"/>
  <path fill="#d22730" d="M474.3 172.2c-.4-1.2.8-1.9 3.5-1.8 4.3 0 8.7-.5 13-1.4 4.6-1.4 8.7-3.8 13.1-5.2.6-.5 1.2-1 1.9-1.4.7-.4 1.3-.8 2.1-1.1 1.3-.9 2.4-1.9 3.6-2.8 3.1-2.8 5.6-6 8.8-8.4l.5-.8.7-.7c0-1 .4-1.7 1.5-2.2.9-1.3 1.7-2.5 2.5-3.9.4-.7.7-1.3 1.1-2 3.2-6.5 4.8-13.6 6.4-20.6V114.2c0-1.9.1-4 .2-6-.2-8.8-.5-17.6-.6-26.5 0-1.9.4-3.8.6-5.7-.2-.7-.5-1.3-.5-2v-8.6c0-2.7-.2-5.4-.4-8.1-.7-7.9-3.4-15.7-7.7-22.5-4.2-6.8-10-12.6-16.7-16.9-10.3-6.8-22.3-10.8-35-11-3.7-.1-7.3-.2-11-.3-9.4.2-18.9.9-28.3-.2l-.7.2-.8-.1c-3.3 1.2-6.7.3-10.1.1l-7.4.1c-5.1.4-10-.4-15-.5l-2.4.1c-1.5.2-3.2.5-4.6.5-5.7-.3-11.3-.2-16.9.3-2.1.2-4-.1-5.9-.4-12.5 1-25.2.9-37.9.7-.7 0-1.3-.4-2-.5-6.8 1-13.9.4-20.8.5-16.5.2-32.9.2-49.4 0-27.1-.3-54.2-.1-81.3-.1-13.2 0-26.3.3-39.5-.1-2-.1-4.3-.1-6.1.2-6.4 1.1-12.8.9-19.3.3C101.3 8.9 88.7 9 76.2 9.3c-1.2 0-2.5 0-3.6-.1-3.2-.4-6.4-.5-9.6-.5-3 0-5.9.4-8.9 1-2.8.6-5.8 1.4-8.5 1.2h-.1c-2 .8-4 1.6-6 2.6-1.7 1.9-3.7 3.1-6.4 3.5l-1.9 1.2c-.6.4-1.2.9-1.8 1.3-.5.6-1 1.2-1.6 1.6-.6.5-1.3.9-1.9 1.3-1 1.2-2 2.3-3.3 3.1-1.4 1.9-2.9 3.6-4.5 5.3-4.5 6.3-7.7 13.3-10.4 20.5-.8 3.7-1.3 7.4-1.4 11.2v4.1l.1 4.4.1 8.9c0 6.2.1 12.1.3 18 .1 3.8-.1 7.3-.1 11v5.5c0 .8 0 1.7.1 2.5l.2 2.5c.4 3.3 1 6.6 2 9.8 1.9 6.4 4.9 12.5 8.8 17.8 3.9 5.4 9 9.9 13.7 14.4 2.6 1.5 5.2 3 7.8 4.3 2.6 1.4 5.3 2.7 8.2 3.5 2.6.8 5.3 1.4 8 1.9 1.4.3 2.7.4 4.1.5.7.1 1.4.1 2.1.1.7 0 1.4.1 2.1.1 5.9.2 11.7.4 17.6.6 2.5.1 4.8.3 6.7 1 4.6-1.4 10.1-1.8 15.4-1.7 10.1.1 20.1.5 30.1.9 1.1 0 2.1.4 3.2.6 3.1-.8 6.3-.2 9.5-.1 11.8.3 23.5.5 35.3.8 1.6 0 3.2.2 4.7.3h.2c11.6-.2 23.2-.3 34.8-.5 2.1 0 4 0 5.7.5 5.6-.9 11.4-.5 17-.4 18.8.5 37.5.6 56.3.2 6.9-.1 13.8.1 20.8 0 8.9-.1 17.9-.4 26.8-.5 15.5-.1 31.1-.7 46.6-.9 16-.2 32-.1 47.9 0 2.4 0 4.8.4 7.2.5 7.2-.9 14.6.2 22.2-.5.7 1 1.1 1.8 1.7 2.5.6.7.8 1.2-.3 1.8-3 1.6-6.8 2.9-11.1 3.8-3.9.8-8 .2-11.6-.8-3.5.1-6.9 0-10-.7-7.4.3-14.7.5-22.1.8-1.6.1-3.5.1-4.9-.1-6.4-1-12.9-.8-19.5-.4-2.5.2-4.9 0-6.8-.8-3.8 1.4-8.3 2.1-13.4 1.8-24.1-1.1-48.3-.6-72.4-.1-6 .1-12.3.8-18.3-.4-.9-.2-2.4 0-3.5.2-11.3 1.5-22.7.4-34 0-7.8-.3-15.2.7-23 .1-13.5-.9-27.1.1-40.6-.2-5.2.4-10.3.7-15.3-.4l-4.5.1c-1 .9-2.2.6-3.4.1-.6.2-1.2.2-1.8-.1-3.4-.1-7.2.6-10.2-.6l-2.4-.2c-1.3.1-2.3-.1-2.9-.6-6.9.4-13.6.3-20.3-.6-.7.2-1.4.1-1.9-.2-8.8.4-17.6.5-26.4 0-4.9-.3-9.5.4-14.1.8-2.6.2-4.8.2-6.9-.5l-5.4-.1c-1.8 0-3.6-.1-5.5-.2-3.7-.2-7.5-.7-11.1-1.5-7.3-1.7-14.2-4.6-20.5-8.7-2-1.3-4.3-2.8-5.2-4.6-4.6-3.5-8.2-8.1-12.1-12.4-.9-1.1-1.2-1.9-1.3-2.8-1.8-2.6-3.3-5.5-4.7-8.4-1.4-2.9-2.5-5.9-3.4-9-.9-2.9-.8-5.4-.9-8-.5-.8-.9-2-1.1-3.2-.2-1.2-.2-2.4-.1-3.1.1-.9.1-1.8.2-2.7.1-.9.1-1.8.2-2.7.1-1.8.1-3.6 0-5.3-.1-3.5-.4-7-.8-10.4-.6-7.8-.1-15.4 1-23.1-.4-2.5-.7-5-.9-7.6-.2-2.6 0-5.2.2-7.8C1.2 51.2 2.7 46 5 41.2c2.4-6.7 6.7-12.5 11.9-16.8.9-1.4 1.9-2.6 3.3-3.4 1.1-1.2 2.2-2.2 3.4-3.3.3-.5.4-1.2.8-1.5 2.3-1.9 4.7-3.7 7.2-5.2 1.3-.8 2.6-1.5 3.9-2.2 1.3-.6 2.7-1.3 4.1-1.8 5.5-2.2 11.5-3.2 17.2-2.8 2.4-1.4 6.3-1.3 9.3-1.3C74 2.6 82 2.6 89.7 3c3.9.2 7.2-.8 10.8-.2 11.4-.3 22.7-.6 34.1-.9 2-.1 4-.3 5.9-.6 2.8-.4 5.6-.5 8.6-.3 24.3 1.1 35.5 1.2 56.3.3 1.2-.1 2.6-.2 3.7-.1 8.6.9 17.1-.2 25.7-.3 2.9 0 6-.3 8.6 0 9.8 1.2 19.6.6 29.4.3 15.5-.5 31-.9 46.6-.1 5.8 0 11.7-.3 17.4.3h2.5c3.3-.6 6.6-1 9.9-.1.7-.2 1.5-.2 2.4-.2 4.9-1.2 10-.9 15.1-.4.6-.2 1.2-.2 1.9-.1 1.1-.7 2.7-.6 4.4-.5 2.8.2 5.7.3 8.5.5 1.6-.4 3.3-.5 5.1-.1 2.4 0 4.9.2 7.2 0 9.3-.9 18.4-.4 27.6.2l2.5-.1c6.8-.7 13.7.1 20.7-.1 6.8-.2 13.6.3 20.3-.6 2.8.2 5.6.3 8.4.3 1.4 0 2.9.1 4.4.1l4.5.3c3 .3 5.9.9 8.8 1.7 2.9.9 5.6 1.9 8.2 3.3 1.2.4 2.5.8 3.7 1.3 1.2.5 2.4 1.1 3.4 2 8 4.2 15.1 10.1 20.8 17.2 2 2.5 3.4 4.6 4.5 6.3 1.1 1.8 1.9 3.3 2.6 5 .3.8.7 1.7 1 2.7.3 1 .6 2 .9 3.2.5 2.4 1.2 5.3 1.5 9.1.2.7.3 1.5.5 2.2.1.7.3 1.5.4 2.2.3.7.7 1.4.7 2 .1 2 .1 4.1.1 6.1v5.9c0 3.9-.1 7.8-.8 11.5l.1 2.6c1 5.2 1 10.7.9 16.2l-.2 10.9v1.4l-.1 1.4c-.1.9-.1 1.9-.2 2.8-.1.9-.2 1.9-.3 2.8l-.4 2.8c-1.3 7.5-3.9 14.7-7.4 21.4-.6 1.2-1.3 2.3-2.1 3.2-.4.5-.8 1-1.1 1.5-.4.5-.8.9-1.2 1.4-1.6 1.8-3.3 3.5-4.8 5.6-2.8 3.8-6.4 6.7-10.4 8.3-1.9 1.9-4.2 3.4-6.5 4.6-2.4 1.1-4.8 2-7.3 2.5h-.1c-.7.4-1.3.7-2.1.7l-2.4.8c-2.7 1.2-5.5 2-7.9 1.3v.1c-2.8.7-5.4.7-7-.3-2.1-.3-3.4-1-3.7-2.1zm-312.8 6c.1 0 .3 0 .4-.1-.2 0-.3 0-.4.1zm-25.3-4.6z"/>
</svg>