<svg id="Layer_1" data-name="Layer 1" xmlns="http://www.w3.org/2000/svg" viewBox="0 0 423.85 145.18"><defs><style>.cls-1{fill:#0f2d52;}.cls-2{fill:#fff;}.cls-3{fill:#8dc63f;}</style></defs><path class="cls-1" d="M133.31,72.59A60.91,60.91,0,1,1,72.4,11.53a61,61,0,0,1,60.91,61.06"/><path class="cls-1" d="M95.87,91.55h0Z"/><polygon class="cls-1" points="109.88 100.19 109.88 100.2 109.88 100.19 109.88 100.19"/><path class="cls-2" d="M95.88,91.56Z"/><path class="cls-2" d="M109.88,100.19h0s0,0,0,0"/><polygon class="cls-2" points="109.2 100.96 109.2 100.96 109.2 100.96 109.2 100.96"/><polygon class="cls-2" points="109.88 100.19 109.88 100.19 109.88 100.19 109.88 100.19"/><path class="cls-2" d="M109.2,101h0s0,0,0,0"/><path class="cls-1" d="M72.4,4.5a68.1,68.1,0,1,0,67.92,68.09A68.08,68.08,0,0,0,72.4,4.5m0,140.68a72.13,72.13,0,0,1-51.19-21.26,72.67,72.67,0,0,1,23-118.21A72.46,72.46,0,0,1,144.8,72.59a72.59,72.59,0,0,1-44.22,66.88,71.65,71.65,0,0,1-28.18,5.71"/><path class="cls-3" d="M95.87,91.55h0Z"/><path class="cls-2" d="M126.49,83.1a6.77,6.77,0,0,0-1.36-2.49,12.42,12.42,0,0,0-3.66-2.75l-.44-.23-.13-.07-.12-.11-.33-.31-1.36-1.27-2.73-2.57-5.47-5.12-5.55-5.12-5.71-4.84c-1.88-1.62-3.73-3.26-5.46-5a25.29,25.29,0,0,1-2.37-2.57,4.86,4.86,0,0,1-.36-.55s0-.07-.06-.15,0-.13-.07-.18l-.17-.48c-.23-.62-.49-1.24-.78-1.84a17.84,17.84,0,0,0-11.84-9.36,18.44,18.44,0,0,1,9.7,10.28,16.86,16.86,0,0,1,.51,1.67l.1.43.07.26a2,2,0,0,0,.09.3,6.68,6.68,0,0,0,.53,1.1,25.38,25.38,0,0,0,2.39,3.2c1.69,2,3.46,3.75,5.25,5.53s3.65,3.52,5.43,5.19l2.61,2.62,2.67,2.64,5.37,5.24L116,79.17l1.36,1.3.35.33.19.17a3.82,3.82,0,0,0,.41.34l.15.1.07,0,.09.06.15.08.23.11.39.2a7.91,7.91,0,0,1,2.33,1.68,2,2,0,0,1,.46.75,1.25,1.25,0,0,1,0,.67,2.13,2.13,0,0,1-.17.45c0,.09-.08.17-.13.26l-.22.35c-.15.24-.36.58-.53.9s-.34.61-.49.93a17.35,17.35,0,0,0-1.4,4c-.15.68-.26,1.38-.35,2l-.11.9v.05l-.71.43c-.51.3-1,.59-1.58.88a49.4,49.4,0,0,1-6.5,3,9.11,9.11,0,0,1-1.48.39c-.19,0-.38,0-.24,0l.1,0-.06,0-.11-.05h0a1.64,1.64,0,0,1-.19-.13,12.4,12.4,0,0,1-2-2.56c-.34-.52-.69-1.05-1.1-1.6a9.73,9.73,0,0,0-.68-.85,3.9,3.9,0,0,0-1.1-.87,2.32,2.32,0,0,0-.47-.17l-.28,0h-.11l-.44,0-.92-.09L99,93.05c-2.47-.29-4.92-.69-7.35-1.17-1.21-.25-2.41-.55-3.6-.91a11.29,11.29,0,0,1-3.37-1.53,10.72,10.72,0,0,0,3.15,2.1A34.51,34.51,0,0,0,91.31,93,71.21,71.21,0,0,0,98.6,95l1.85.42.94.18.49.09.12,0h0s0,0,0,0a2.7,2.7,0,0,1,.3.36,7.56,7.56,0,0,1,.44.66c.29.49.57,1,.86,1.59s.61,1.12,1,1.71a9.13,9.13,0,0,0,1.38,1.78,5.29,5.29,0,0,0,.55.44l.37.23.11,0,.05,0,.13.06.07,0a3.81,3.81,0,0,0,1.62.2,12,12,0,0,0,2.18-.39,46.27,46.27,0,0,0,7.29-2.8c.59-.27,1.16-.56,1.74-.86l.89-.47.48-.28c.1-.07.14-.08.38-.26,0,0,.23-.19.34-.32a3.56,3.56,0,0,0,.29-.41,3.41,3.41,0,0,0,.39-1c.06-.24.1-.42.13-.61l.16-1c.1-.58.2-1.12.34-1.65a14,14,0,0,1,1.17-3c.13-.24.26-.48.4-.72s.25-.42.44-.7l.29-.45c.11-.18.21-.36.31-.56a6.18,6.18,0,0,0,.5-1.29A5.7,5.7,0,0,0,126.49,83.1Zm-16.61,17.1Zm9.22-5.56Zm0,0s0,0,0,0S119.13,94.62,119.11,94.63Z"/><polygon class="cls-2" points="109.88 100.2 109.88 100.19 109.88 100.19 109.88 100.2"/><path class="cls-2" d="M87.88,84.2a50.37,50.37,0,0,1-7.68,2.13A16.39,16.39,0,0,1,73,86.24a12.22,12.22,0,0,1-5.85-3.77A41.74,41.74,0,0,1,62.62,76,16.55,16.55,0,0,0,65,84.08a12.87,12.87,0,0,0,3,3.37,11.65,11.65,0,0,0,4.14,2.09,14.28,14.28,0,0,0,8.82-.62A18,18,0,0,0,87.88,84.2Z"/><path class="cls-2" d="M65.37,100.59c-.66-1.53-1.31-3-1.89-4.48-.15-.36-.3-.74-.43-1.09s-.25-.68-.35-1a16.27,16.27,0,0,1-.45-2.12,17.32,17.32,0,0,1,1.54-9.22,12.45,12.45,0,0,0-5.12,9.28,13.14,13.14,0,0,0,.1,2.87A11.31,11.31,0,0,0,59,96.22c.11.45.22.86.34,1.29a45.61,45.61,0,0,0,1.78,4.86c1.33,3.09,2.63,5.92,3.63,9s1.81,6.24,2.79,9.57a26.68,26.68,0,0,0,.72-10.35A36.18,36.18,0,0,0,65.37,100.59Z"/><path class="cls-2" d="M63.49,126.36a57.17,57.17,0,0,0-.93-5.79,56.81,56.81,0,0,0-1.48-5.7A52.36,52.36,0,0,0,49.27,94.35a46.23,46.23,0,0,0-4.41-4.1c-.81-.66-1.5-1.21-2.18-1.78s-1.35-1.2-2-1.84A32.26,32.26,0,0,1,34.36,78a24.9,24.9,0,0,1-2.68-10.34A23.29,23.29,0,0,1,34,56.83a19.31,19.31,0,0,0-4.86,10.72,24.58,24.58,0,0,0,1.61,12.07,31.16,31.16,0,0,0,6.74,10.21c.71.72,1.46,1.42,2.22,2.09s1.6,1.3,2.28,1.86a49,49,0,0,1,4.07,3.68A57.49,57.49,0,0,1,58,116c.69,1.74,1.38,3.49,2,5.29s1.1,3.61,1.58,5.45c.5,2,1,4.11,1.31,6.2l1,.13v-.86C63.85,130.24,63.7,128.3,63.49,126.36Z"/><path class="cls-2" d="M49,83.43c-1.05-1.16-2.16-2.23-3.15-3.29a23.38,23.38,0,0,1-2.61-3.23,18.77,18.77,0,0,1-1.79-3.62A19.83,19.83,0,0,1,40,65.35a16.4,16.4,0,0,1,2.23-7.61,26.53,26.53,0,0,1,5.37-6.49Q49.2,49.8,51,48.47c1.18-.89,2.44-1.69,3.69-2.51a81.24,81.24,0,0,1,8-4.37,41,41,0,0,0-8.9,2.53,39.7,39.7,0,0,0-4.23,2,33.71,33.71,0,0,0-4,2.5,26.66,26.66,0,0,0-6.82,6.94,19.39,19.39,0,0,0-3.19,9.59A22.62,22.62,0,0,0,37.3,75a19.84,19.84,0,0,0,2.47,4.41A22.48,22.48,0,0,0,43.2,83C45.63,85,48,86.65,50.06,88.73a50.29,50.29,0,0,1,5.72,7A26.93,26.93,0,0,0,52,87.15,32.2,32.2,0,0,0,49,83.43Z"/><path class="cls-2" d="M45.09,44.39a73.57,73.57,0,0,1,10.09-4.21c1.73-.6,3.47-1.14,5.24-1.61,1.16-.31,2.37-.59,3.55-.83l5.32,13.58L67.92,36a19.31,19.31,0,0,1,1-8.67,12.65,12.65,0,0,1,2.16-3.62,9.49,9.49,0,0,1,.82-.86c.22,2.67.44,5.34.7,8l.24,2.59,2-1.41a5.48,5.48,0,0,0,1.3-1.3A13.13,13.13,0,0,0,77,29.43c.5-.83.93-1.67,1.34-2.52s.89-2,1.3-3a16.76,16.76,0,0,1,.94,4.83,17.79,17.79,0,0,1-.27,3.71,15,15,0,0,1-1.06,3.63,15.62,15.62,0,0,0,1.62-3.49,16.3,16.3,0,0,0,.78-3.82A16.68,16.68,0,0,0,80.47,21l-.78-1.93L78.7,21c-.8,1.6-1.67,3.19-2.57,4.72-.21.35-.42.7-.64,1.05,0-2.51-.11-5-.15-7.52l0-2.66-2.53,1c-.34.14-.51.22-.75.34l-.63.35c-.42.25-.81.51-1.19.79A16.2,16.2,0,0,0,68.11,21a16.7,16.7,0,0,0-3,4.67,20.34,20.34,0,0,0-1.64,7.62c-1.42.26-2.76.57-4.14.91-1.89.48-3.74,1-5.58,1.64a79.69,79.69,0,0,0-10.66,4.6,64.76,64.76,0,0,0-9.79,6.26,60.25,60.25,0,0,0-8.52,7.91l-.13.15,0,0a36.33,36.33,0,0,0-7,13.66,27.74,27.74,0,0,0,.34,15.76,30.27,30.27,0,0,0,8.7,13.1A35.63,35.63,0,0,0,39.87,105a61.79,61.79,0,0,1-11.29-9.67,34.69,34.69,0,0,1-7.26-12.23,30.7,30.7,0,0,1-1-14.09,47.62,47.62,0,0,1,1.3-5.81c-.11.69-.2,1.38-.26,2.07A27.67,27.67,0,0,0,22.7,75.88a34.34,34.34,0,0,0,4.84,9.26,46.64,46.64,0,0,0,3.29,4c1.17,1.25,2.41,2.43,3.69,3.55q-1.67-1.94-3.13-4a45.55,45.55,0,0,1-2.73-4.24,34,34,0,0,1-3.72-9.18,25.12,25.12,0,0,1-.49-9.6A23.42,23.42,0,0,1,25.57,61a20.76,20.76,0,0,1,.92-2.17q.26-.52.54-1a7.65,7.65,0,0,1,.47-.76,65.08,65.08,0,0,1,8.24-7A75.65,75.65,0,0,1,45.09,44.39Z"/><path class="cls-1" d="M161.93,55.72a21.6,21.6,0,0,1,34.9-16.59,3.34,3.34,0,1,1-4.09,5.27,15.18,15.18,0,0,0-9.24-3.16A14.46,14.46,0,0,0,173,45.52a13.91,13.91,0,0,0,0,20.28,14.46,14.46,0,0,0,10.52,4.28,16.09,16.09,0,0,0,8-2.23v-8h-8.36a3.37,3.37,0,0,1-3.33-3.34,3.28,3.28,0,0,1,3.33-3.28h11.64a3.29,3.29,0,0,1,3.39,3.28v13a5,5,0,0,1-.18,1c-.06.12-.06.17-.12.29v.06a2.72,2.72,0,0,1-1.11,1.41,21.54,21.54,0,0,1-13.27,4.57,21.27,21.27,0,0,1-21.57-21"/><path class="cls-1" d="M237.58,55.66a15.24,15.24,0,0,0-4-10.26,12.6,12.6,0,0,0-18.71,0,14.91,14.91,0,0,0-4,10.26,14.67,14.67,0,0,0,4,10.2,12.48,12.48,0,0,0,18.71,0,15,15,0,0,0,4-10.2m.76-14.83a21.56,21.56,0,0,1,0,29.66,19.12,19.12,0,0,1-14,6.27,19.69,19.69,0,0,1-14.32-6.27,21.89,21.89,0,0,1,0-29.66,19.48,19.48,0,0,1,14.32-6.28,18.91,18.91,0,0,1,14,6.28"/><path class="cls-1" d="M257.58,70.25h3.62a14,14,0,0,0,0-28h-3.62Zm-6.49,3.28V39a3.17,3.17,0,0,1,3.21-3.22h6.9a20.52,20.52,0,0,1,0,41h-6.9a3.21,3.21,0,0,1-3.21-3.23"/><path class="cls-1" d="M294.94,70.25h3.62a14,14,0,0,0,0-28h-3.62Zm-6.49,3.28V39a3.17,3.17,0,0,1,3.21-3.22h6.9a20.52,20.52,0,0,1,0,41h-6.9a3.21,3.21,0,0,1-3.21-3.23"/><path class="cls-1" d="M342.29,60.64,337.56,48l-4.74,12.6Zm2.4,6.45h-14.2l-2.87,7.62a3.28,3.28,0,0,1-3,2.05,3.59,3.59,0,0,1-1.11-.17,3.33,3.33,0,0,1-1.93-4.22l12.92-34.53a3.27,3.27,0,0,1,3.1-2.05,3.22,3.22,0,0,1,3.1,2.05l12.92,34.53a3.19,3.19,0,0,1-3,4.39,3.13,3.13,0,0,1-3-2.05Z"/><path class="cls-1" d="M378.6,48.33a6,6,0,0,0-6-6.1h-7.19V54.31h7.19a6,6,0,0,0,6-6m8.18,23.56a3.23,3.23,0,0,1-2,4.11,5.62,5.62,0,0,1-1.29.17h-.06a4.31,4.31,0,0,1-2.28-.64,5.88,5.88,0,0,1-1.87-2,15.8,15.8,0,0,1-1.22-7,5,5,0,0,0-.71-2.52,5.48,5.48,0,0,0-1.75-1.7,10.94,10.94,0,0,0-3.27-1.4h-6.9V73.53a3.27,3.27,0,0,1-3.28,3.23,3.21,3.21,0,0,1-3.21-3.23V39a3.17,3.17,0,0,1,3.21-3.22h10.47a12.54,12.54,0,0,1,7.95,22.21,9.26,9.26,0,0,1,2.05,2.17,11.12,11.12,0,0,1,1.93,6.33,14.66,14.66,0,0,0,.23,3.46,3.14,3.14,0,0,1,2,2"/><path class="cls-1" d="M399.82,70.25h3.63a14,14,0,0,0,0-28h-3.63Zm-6.49,3.28V39a3.17,3.17,0,0,1,3.22-3.22h6.9a20.52,20.52,0,0,1,0,41h-6.9a3.22,3.22,0,0,1-3.22-3.23"/><path class="cls-1" d="M167.5,120.28a3,3,0,0,1,4.27-.41c2.57,2.11,7,4.57,11.16,4.52a12.63,12.63,0,0,0,7.31-2.17,5.3,5.3,0,0,0,2.52-4.22,3.39,3.39,0,0,0-.53-1.88,5.61,5.61,0,0,0-1.76-1.76,23.31,23.31,0,0,0-8-2.75h-.11a31.4,31.4,0,0,1-7.54-2.29,12.59,12.59,0,0,1-5.44-4.57A9,9,0,0,1,168,99.94a10.84,10.84,0,0,1,4.67-8.56,17.29,17.29,0,0,1,10.12-3.1c5.61,0,9.76,2.75,12.74,4.69a3,3,0,0,1,.82,4.16,2.94,2.94,0,0,1-4.15.88c-3-2-5.85-3.75-9.41-3.75a11.15,11.15,0,0,0-6.55,2,4.65,4.65,0,0,0-2.22,3.69,2.78,2.78,0,0,0,.41,1.64,5.58,5.58,0,0,0,1.57,1.53,20.27,20.27,0,0,0,7.31,2.58h.12a33.82,33.82,0,0,1,8.07,2.46,13.7,13.7,0,0,1,5.84,4.86,9.53,9.53,0,0,1,1.41,5,11.35,11.35,0,0,1-5,9.08,18.26,18.26,0,0,1-10.82,3.34c-6.31-.06-11.63-3.22-15-5.86a3.13,3.13,0,0,1-.46-4.28"/><path class="cls-1" d="M203.4,109.38a21.49,21.49,0,0,1,21.45-21.1,21.84,21.84,0,0,1,13.51,4.57,3.47,3.47,0,0,1,.58,4.69,3.41,3.41,0,0,1-4.67.64A14.57,14.57,0,0,0,224.85,95a15.45,15.45,0,0,0-10.52,4.22,14.48,14.48,0,0,0-4.27,10.2,14.29,14.29,0,0,0,4.27,10.2,15.45,15.45,0,0,0,10.52,4.22,14.64,14.64,0,0,0,9.42-3.23,3.54,3.54,0,0,1,4.67.65,3.46,3.46,0,0,1-.58,4.69,21.84,21.84,0,0,1-13.51,4.57,21.41,21.41,0,0,1-21.45-21.1"/><path class="cls-1" d="M250.36,127.26V92.67a3.18,3.18,0,0,1,3.22-3.22,3.22,3.22,0,0,1,3.27,3.22v14.07H272V92.67a3.18,3.18,0,0,1,3.22-3.22,3.22,3.22,0,0,1,3.27,3.22v34.59a3.22,3.22,0,0,1-3.27,3.22,3.18,3.18,0,0,1-3.22-3.22V113.19H256.85v14.07a3.22,3.22,0,0,1-3.27,3.22,3.18,3.18,0,0,1-3.22-3.22"/><path class="cls-1" d="M321.65,109.38a15.2,15.2,0,0,0-4-10.26A12.57,12.57,0,0,0,308.44,95,12.7,12.7,0,0,0,299,99.12a14.91,14.91,0,0,0-4,10.26,14.66,14.66,0,0,0,4,10.2,12.47,12.47,0,0,0,18.7,0,14.93,14.93,0,0,0,4-10.2m.76-14.83a21.59,21.59,0,0,1,0,29.66,19.12,19.12,0,0,1-14,6.27,19.73,19.73,0,0,1-14.33-6.27,21.89,21.89,0,0,1,0-29.66,19.51,19.51,0,0,1,14.33-6.27,18.9,18.9,0,0,1,14,6.27"/><path class="cls-1" d="M369.84,109.38a15.2,15.2,0,0,0-4-10.26,12.6,12.6,0,0,0-18.71,0,14.91,14.91,0,0,0-4,10.26,14.66,14.66,0,0,0,4,10.2,12.48,12.48,0,0,0,18.71,0,14.93,14.93,0,0,0,4-10.2m.76-14.83a21.59,21.59,0,0,1,0,29.66,19.14,19.14,0,0,1-14,6.27,19.71,19.71,0,0,1-14.32-6.27,21.89,21.89,0,0,1,0-29.66,19.48,19.48,0,0,1,14.32-6.27,18.92,18.92,0,0,1,14,6.27"/><path class="cls-1" d="M385.8,127.26V92.67A3.21,3.21,0,0,1,389,89.45a3.25,3.25,0,0,1,3.27,3.22V124h15.85a3.25,3.25,0,0,1,0,6.5H389a3.21,3.21,0,0,1-3.22-3.22"/><path class="cls-1" d="M423.85,95.52a8.09,8.09,0,1,1-8-7.87A7.92,7.92,0,0,1,423.85,95.52Zm-14.16,0a6.13,6.13,0,0,0,6.15,6.29,6,6,0,0,0,6-6.24,6.08,6.08,0,1,0-12.15,0Zm4.85,4.08h-1.82V91.73a20.74,20.74,0,0,1,3-.24,4.23,4.23,0,0,1,2.69.62,2,2,0,0,1,.82,1.68,2,2,0,0,1-1.64,1.88v.09c.77.24,1.16.87,1.4,1.92a7.3,7.3,0,0,0,.57,1.92h-1.92a6.26,6.26,0,0,1-.62-1.92c-.15-.81-.63-1.2-1.63-1.2h-.87Zm0-4.41h.86c1,0,1.83-.34,1.83-1.16s-.53-1.2-1.68-1.2a4.21,4.21,0,0,0-1,.1Z"/><path class="cls-1" d="M169.51,6.43h-5.07a.59.59,0,0,1,0-1.18h11.28a.59.59,0,0,1,0,1.18h-5.06V21.48a.58.58,0,0,1-1.15,0Z"/><path class="cls-1" d="M191.25,14.23h-8.64v7.25a.58.58,0,0,1-.6.57.58.58,0,0,1-.57-.57V5.83a.59.59,0,0,1,.57-.58.59.59,0,0,1,.6.58v7.25h8.64V5.83a.59.59,0,0,1,1.18,0V21.48a.59.59,0,0,1-1.18,0Z"/><path class="cls-1" d="M199.17,5.83a.59.59,0,0,1,.58-.58h8.64a.59.59,0,0,1,0,1.18h-8v6.65h7a.59.59,0,0,1,.58.6.59.59,0,0,1-.58.57h-7v6.63h8a.57.57,0,0,1,.57.6.56.56,0,0,1-.57.57H199.7a.57.57,0,0,1-.53-.57Z"/></svg>