<svg version="1.1" id="Layer_1" xmlns="http://www.w3.org/2000/svg" x="0" y="0" viewBox="0 0 112.8 144.4" xml:space="preserve">
  <path d="M108.8 56.4C108.8 27.5 85.3 4 56.4 4c-4.2 0-8.4.5-12.6 1.5-18.6 4.3-33 18-37.8 35.8-10.8 40.3 25.5 78.6 44.3 96.7 3.4 3.3 8.8 3.3 12.2 0 5.2-5 11.8-11.8 18.3-19.9 12.8-15.9 28-36.9 28-61.7zM59.4 84.7c-1 .1-2 .1-3 .1-8.4 0-16.4-3.6-22-9.8-5.7-6.3-8.4-14.4-7.5-22.9 1.4-14 12.5-25.1 26.5-26.5 1-.1 2-.1 3-.1 8.4 0 16.4 3.6 22 9.8 5.7 6.3 8.4 14.4 7.5 22.9-1.4 13.9-12.5 25.1-26.5 26.5z" fill="#fff" stroke="#fff" stroke-width="8" stroke-miterlimit="10"/>
</svg>