<svg viewBox="0 0 1440 5760" xmlns="http://www.w3.org/2000/svg"><path d="m1440 11.86l 0 5746l-1440 0l0-5752c3.29-2.12 8.35-3.21 13.17-4.31 4.32-.98 8.85-.22 12.77 1.14 3.84-.04 7.62.05 11.03 1.1s0 0 0 0c8.13-.27 16.26-.55 24.4-.82 1.8-.05 3.83-.15 5.41.18 7.09 1.45 14.24 1.23 21.51.71 2.74-.2 5.45.06 7.51 1.15 4.23-1.76 9.16-2.67 14.75-2.33 26.61 1.62 53.21 1.13 79.84.55 6.66-.14 13.58-.99 20.14.71.95.25 2.62-.02 3.86-.2 12.51-1.9 25.06-.43 37.49.2 8.55.43 16.81-.84 25.39-.11 14.84 1.26 29.86.03 44.79.37 5.7-.51 11.39-.88 16.84.54s0 0 0 0l.03.03 4.93-.14s0 .03 0 .03c1.08-1.26 2.42-.74 3.78-.12.72-.3 1.38-.27 1.98.08 3.8.14 7.95-.82 11.24.87l2.69.32c1.45-.11 2.56.09 3.17.76 7.58-.54 15.04-.36 22.33.87.83-.21 1.52-.13 2.09.23 9.69-.46 19.4-.62 29.07.06 5.45.38 10.46-.46 15.57-.99 2.84-.3 5.29-.27 7.55.65 15.94.43 31.87.87 47.8 1.3 2.6.08 5.42-.05 7.48 1.03 6.3-.09 12.6.66 18.89-.03 1.5-.16 2.43.25 3.29.73 0 0-.02-.01-.02-.02s0 0 0 0c7.02-.04 14.05.05 21.04-.17 3.33-.11 5.91.66 8.83 1.01 1.91-1.12 5.56-1.07 7.05-.85 8.02 1.17 15.75.48 23.32-.5 8.97-1.17 17.36-.42 25.79.94h.01s0 0 0 0c11-2.14 22.4-2.27 33.96-1.62 7.74-.56 15.23-.05 22.54 1.21 1.76-.43 3.5-.45 5.22.04s0 0 0 0l5.2-.31c.59-.32 1.13-.89 1.77-.92 12.85-.57 25.78-1.69 38.22 1.05s0 0 0 0c2.79-1.52 6.83-1.33 10.24-1.4 8.63-.17 17.39-.29 25.89.26 4.26.28 7.95-1.04 11.96-.29 12.52-.41 25.04-.82 37.56-1.24 2.21-.08 4.41-.47 6.53-.83 3.09-.53 6.22-.65 9.43-.48 26.81 1.42 39.14 1.46 62.04.2 1.36-.07 2.81-.32 4.06-.18 9.52 1.11 18.86-.37 28.29-.47 3.18-.03 6.58-.39 9.51.02 10.8 1.5 21.66.67 32.42.23 17.14-.69 34.23-1.29 51.38-.4s0 0 0 0c6.41 0 12.87-.5 19.2.38l2.74-.07c3.62-.81 7.24-1.32 10.92-.13.8-.25 1.67-.33 2.6-.25 5.34-1.65 10.98-1.19 16.63-.6.66-.24 1.36-.28 2.11-.12 1.19-.88 2.93-.87 4.79-.75 3.13.2 6.27.4 9.4.6 1.79-.55 3.64-.69 5.57-.21 2.66.02 5.45.3 7.95 0 10.25-1.22 20.34-.6 30.47.16s0 0 0 0l2.7-.15c7.55-.98 15.15.05 22.78-.25 7.46-.29 15.03.26 22.39-.87 12.29 1.07 24.95-.65 37.17.97 2.73-.25 5.44-.82 8.25-.23 9.42-.38 18.85-.68 28.25-1.15 13.47-.68 13.46-.73 29.84 1.67l4.81-.15c.73-.23 1.56-.71 2.19-.66 8.47.7 17.36-.49 25.59 1.2s0 0 0 0l2.81-.09c5.68-1.41 11.81-1.42 17.91-1.33 16.05.23 32.12 1.03 48.16.38 5.64-.23 10.34 1.54 15.8.82 5.01-.66 9.8-.43 14.32.81 5.8-1.14 11.37-.63 16.85.47l.08-.02c.85-.25 1.64-.21 2.36.11l2.74.02c3.22-.61 6.24-.67 8.7.73l.04-.1c3.2-.3 5.93-.02 7.68 -1.44 2.27 -1.44 2.71 -1.49 3.09 -1.06z"/></svg>