<svg id="Layer_1" data-name="Layer 1" xmlns="http://www.w3.org/2000/svg" viewBox="0 0 100 100"><defs><style>.cls-1{fill:#aad268;stroke:#aad268;stroke-width:0.75px;}.cls-1,.cls-2{stroke-linecap:round;stroke-linejoin:round;}.cls-2{fill:#fff;stroke:#fff;}</style></defs><circle class="cls-1" cx="49.9" cy="49.15" r="47.3"/><path class="cls-2" d="M78.75,60.92c-.2,4.64-1.24,8.76-4.6,12.17S66.67,77.6,62,77.84s-19.11.39-23.9.15S29.38,76.75,26,73.39s-4.5-7.47-4.75-12.11-.39-19.12-.15-23.91,1.22-8.76,4.6-12.17,7.49-4.49,12.11-4.74c4.79-.3,19.12-.39,23.91-.15,4.64.21,8.76,1.24,12.17,4.61S78.35,32.39,78.6,37,79,56.13,78.75,60.92ZM73.66,49c0-4.22.27-13.27-1.27-17.08a9.77,9.77,0,0,0-5.54-5.47C63,25,54,25.38,49.76,25.4s-13.26-.26-17.07,1.27a9.77,9.77,0,0,0-5.47,5.54C25.74,36,26.14,45.08,26.16,49.3s-.26,13.27,1.27,17.07A9.77,9.77,0,0,0,33,71.84c3.81,1.48,12.87,1.09,17.09,1.06s13.27.27,17.07-1.27a9.74,9.74,0,0,0,5.47-5.54C74.09,62.28,73.69,53.22,73.66,49Zm-8.89.05A14.86,14.86,0,1,1,49.82,34.3,14.84,14.84,0,0,1,64.77,49.06Zm-5.2,0A9.66,9.66,0,1,0,50,58.81,9.66,9.66,0,0,0,59.57,49.09Zm5.73-12a3.47,3.47,0,1,1,3.44-3.49A3.46,3.46,0,0,1,65.3,37.06Z"/></svg>