<svg id="Layer_1" data-name="Layer 1" xmlns="http://www.w3.org/2000/svg" viewBox="0 0 100 100"><defs><style>.cls-1{fill:#6ccad0;}.cls-2{fill:#fff;stroke:#fff;stroke-miterlimit:10;stroke-width:0.75px;}</style></defs><circle class="cls-1" cx="49.81" cy="51.17" r="47.3"/><path class="cls-2" d="M78.17,73.45a6.08,6.08,0,0,1-6.08,6.08H61.29V57.1H69l1.11-8.56H61.29V43.07c0-2.48.69-4.17,4.24-4.17h4.54V31.26a60.63,60.63,0,0,0-6.61-.35c-6.53,0-11,4-11,11.32v6.32H44.75v8.56h7.71V79.53H27.53a6.08,6.08,0,0,1-6.08-6.08V28.89a6.08,6.08,0,0,1,6.08-6.08H72.09a6.08,6.08,0,0,1,6.08,6.08Z"/></svg>