<svg id="Layer_1" data-name="Layer 1" xmlns="http://www.w3.org/2000/svg" viewBox="0 0 100 100"><defs><style>.cls-1{fill:#ffc846;}.cls-2{fill:#fff;stroke:#fff;stroke-linecap:round;stroke-linejoin:round;}</style></defs><circle class="cls-1" cx="50.11" cy="49.5" r="47.3"/><path class="cls-2" d="M83.91,49.24s.1,11.07-1.27,16.39a8.37,8.37,0,0,1-5.92,6c-5.26,1.47-26.4,1.66-26.4,1.66s-21.13.19-26.42-1.18a8.37,8.37,0,0,1-6-5.87c-1.46-5.29-1.56-16.36-1.56-16.36s-.1-11.07,1.26-16.39a8.5,8.5,0,0,1,5.92-6.07c5.26-1.47,26.4-1.66,26.4-1.66S71,25.55,76.31,26.92a8.48,8.48,0,0,1,6,6C83.8,38.17,83.91,49.24,83.91,49.24Zm-23,.21L43.1,39.57l.19,20.1Z"/></svg>